<?xml version="1.0" encoding="iso-8859-1"?>
<!-- Uploaded to: SVG Repo, www.svgrepo.com, Generator: SVG Repo Mixer Tools -->
<svg fill="#000000" height="800px" width="800px" version="1.1" id="Layer_1" xmlns="http://www.w3.org/2000/svg" xmlns:xlink="http://www.w3.org/1999/xlink" 
	 viewBox="0 0 511.999 511.999" xml:space="preserve">
<g>
	<g>
		<path d="M387.427,276.752c-0.755-4.671-1.91-9.314-3.429-13.801c-1.388-4.1-5.842-6.301-9.936-4.909
			c-4.1,1.388-6.298,5.837-4.909,9.936c1.242,3.668,2.184,7.461,2.8,11.277c0.623,3.849,3.95,6.587,7.728,6.587
			c0.415,0,0.837-0.032,1.26-0.101C385.214,285.05,388.117,281.026,387.427,276.752z"/>
	</g>
</g>
<g>
	<g>
		<path d="M372.091,239.963c-16.211-22.305-42.292-35.622-69.767-35.622c-4.329,0-7.837,3.508-7.837,7.837
			c0,4.329,3.508,7.837,7.837,7.837c22.476,0,43.818,10.902,57.09,29.162c1.533,2.111,3.923,3.231,6.345,3.231
			c1.598,0,3.21-0.488,4.601-1.498C373.861,248.365,374.637,243.463,372.091,239.963z"/>
	</g>
</g>
<g>
	<g>
		<g>
			<path d="M487.58,329.729h-32.594c-1.86-21.26-19.749-37.994-41.481-37.994c-1.375,0-2.736,0.071-4.077,0.202v-1.392
				c0-1.62-0.043-3.229-0.114-4.831c6.922-4.672,15.078-7.186,23.624-7.186c4.329,0,7.837-3.509,7.837-7.837
				c0-4.329-3.509-7.837-7.837-7.837c-9.078,0.001-17.827,2.08-25.72,5.996c-0.861-4.173-1.97-8.257-3.302-12.238
				c7.877-7.431,18.13-11.52,29.022-11.52c4.329,0,7.837-3.509,7.837-7.837c0-4.329-3.509-7.837-7.837-7.837
				c-12.996,0.001-25.323,4.252-35.422,12.072c-2.704-5.228-5.833-10.2-9.33-14.882l12.506-12.505
				c8.925,6.433,20.028,9.912,32.001,9.912c0.001,0,0,0,0.001,0c18.965,0,38.34-8.497,53.155-23.312
				c11.26-11.261,19.075-25.505,22.002-40.113c2.341-11.706-8.765-22.133-20.306-19.041l-34.678,9.292l9.289-34.675
				c3.094-11.515-7.326-22.662-19.041-20.308c-14.602,2.926-28.845,10.738-40.108,22.001
				c-13.052,13.052-21.207,29.561-22.965,46.484c-1.517,14.622,1.867,28.072,9.563,38.676l-11.714,11.714
				c-13.72-13.678-31.114-23.663-50.555-28.336c-1.9-15.771-15.356-28.036-31.631-28.036c-15.242,0-28.013,10.758-31.134,25.078
				h-8.786c-3.121-14.319-15.892-25.078-31.134-25.078c-16.335,0-29.831,12.355-31.653,28.21
				c-19.153,4.742-36.284,14.657-49.833,28.163l-11.717-11.718c7.697-10.603,11.081-24.051,9.563-38.675
				c-1.758-16.923-9.912-33.433-22.964-46.485c-11.262-11.261-25.506-19.075-40.106-22c-11.71-2.349-22.14,8.783-19.044,20.301
				l9.29,34.68l-34.677-9.292c-11.543-3.093-22.645,7.337-20.304,19.044c2.927,14.605,10.74,28.848,22.001,40.108
				c14.816,14.816,34.189,23.312,53.156,23.312c11.973,0,23.076-3.479,32.001-9.912l12.515,12.514
				c-3.571,4.784-6.74,9.882-9.486,15.23c-9.864-7.772-22.291-12.427-35.795-12.428c-4.328,0-7.837,3.508-7.837,7.837
				c0,4.328,3.508,7.837,7.837,7.837c11.429,0.001,21.796,4.571,29.416,11.962c-1.3,3.933-2.381,7.963-3.222,12.082
				c-7.872-4.009-16.771-6.282-26.193-6.282c-4.328,0-7.837,3.508-7.837,7.837c0,4.328,3.508,7.837,7.837,7.837
				c8.965,0,17.275,2.816,24.124,7.593c-0.061,1.467-0.091,2.941-0.091,4.423v0.541c-5.659-2.257-11.622-3.407-17.736-3.407
				c-10.813,0-21.43,3.69-29.899,10.392c-5.162,4.084-7.841,10.676-6.993,17.201c0.66,5.089,2.128,9.954,4.278,14.457H24.42
				C10.955,329.729,0,340.684,0,354.149s10.955,24.42,24.42,24.42h4.553l3.07,22.114c1.247,8.99,9.033,15.772,18.111,15.772h67.918
				c4.329,0,7.837-3.508,7.837-7.837c0-4.329-3.508-7.837-7.837-7.837H50.155c-1.297,0-2.408-0.968-2.587-2.252l-2.772-19.96
				h324.052c4.329,0,7.837-3.508,7.837-7.837c0-4.329-3.508-7.837-7.837-7.837H24.42c-4.823,0-8.747-3.924-8.747-8.747
				s3.924-8.747,8.747-8.747H487.58c4.823,0,8.747,3.924,8.747,8.747s-3.924,8.747-8.747,8.747h-79.025
				c-4.329,0-7.837,3.508-7.837,7.837c0,4.329,3.508,7.837,7.837,7.837h58.651l-2.772,19.959c-0.179,1.284-1.292,2.254-2.589,2.254
				h-307.2c-4.329,0-7.837,3.508-7.837,7.837s3.508,7.837,7.837,7.837h307.2c9.075,0,16.864-6.778,18.113-15.771l3.071-22.115h4.549
				c13.466,0,24.42-10.955,24.42-24.42C512,340.684,501.045,329.729,487.58,329.729z M395.633,165.964
				c0.709-6.826,0.347-3.345,0.001-0.011c1.389-13.352,7.944-26.495,18.457-37.009c9.099-9.1,20.5-15.39,32.107-17.716
				c0.046-0.009,0.093-0.015,0.139-0.015c0.196,0,0.387,0.084,0.515,0.221c0.169,0.181,0.232,0.429,0.167,0.673
				c0,0-12.049,45.131-12.106,45.608l-6.895,6.895c-2.853,2.854-3.043,7.566-0.416,10.634c2.93,3.423,8.312,3.635,11.5,0.45
				l6.899-6.898c0.467-0.053,45.602-12.104,45.602-12.104c0.163-0.045,0.385-0.097,0.67,0.169c0.178,0.165,0.257,0.418,0.21,0.656
				c-2.327,11.606-8.618,23.008-17.717,32.107c-11.897,11.897-27.232,18.721-42.072,18.72c-10.795,0-20.101-3.601-26.913-10.413
				c-7.866-7.866-11.469-19.212-10.149-31.956C395.302,169.156,394.988,172.182,395.633,165.964z M115.274,197.93
				c-6.812,6.813-16.118,10.412-26.911,10.412c-14.841,0-30.176-6.823-42.073-18.721c-9.099-9.098-15.39-20.5-17.716-32.102
				c-0.048-0.24,0.031-0.494,0.211-0.661c0.178-0.166,0.379-0.192,0.485-0.192c0.062,0,0.122,0.008,0.183,0.025
				c0,0,45.134,12.051,45.602,12.104l6.899,6.898c3.188,3.186,8.569,2.974,11.5-0.45c2.626-3.068,2.437-7.78-0.416-10.634
				l-6.891-6.891C86.091,157.25,74.036,112.1,74.036,112.1c-0.064-0.237-0.001-0.486,0.16-0.657
				c0.168-0.181,0.411-0.263,0.665-0.215c11.604,2.326,23.006,8.616,32.104,17.715c10.516,10.517,17.072,23.664,18.458,37.021
				C126.745,178.712,123.142,190.062,115.274,197.93z M102.693,315.369c-4.008-1.633-8.582,0.298-10.211,4.307
				c-1.584,3.892,0.195,8.306,3.969,10.053H79.714c-3.822-4.633-6.37-10.311-7.169-16.475c-0.143-1.097,0.309-2.206,1.178-2.893
				c5.711-4.52,12.875-7.009,20.173-7.009c4.186,0,8.266,0.796,12.127,2.366c2.507,1.021,4.839,2.346,6.965,3.917
				c0.591,3.688,1.374,7.315,2.334,10.869L102.693,315.369z M295.706,174.039c6.627,0,12.329,4.004,14.833,9.716
				c-2.711-0.207-5.452-0.312-8.215-0.312h-21.301C283.598,177.9,289.203,174.039,295.706,174.039z M224.653,174.039
				c6.503,0,12.108,3.861,14.683,9.404h-20.603c-3.012,0-5.994,0.132-8.945,0.376C212.278,178.072,218.001,174.039,224.653,174.039z
				 M173.414,313.56c-2.846,6.997-8.036,12.648-14.492,16.169h-3.088l7.929-19.499c1.631-4.009-0.298-8.582-4.307-10.211
				c-4.013-1.634-8.581,0.299-10.212,4.307l-8.653,21.281c-3.66-8.018-3.973-17.302-0.584-25.631
				c4.38-10.772,14.292-18.393,25.871-19.893c0.136-0.018,0.274-0.026,0.411-0.026c0.974,0,1.879,0.439,2.484,1.203
				C176.015,290.415,177.794,302.792,173.414,313.56z M372.031,329.729H182.177c2.306-3.138,4.255-6.571,5.756-10.263
				c6.503-15.99,3.871-34.355-6.868-47.93c-4.078-5.154-10.68-7.843-17.201-6.995c-15.732,2.036-29.375,11.725-36.554,25.635
				c0.2-50.245,41.132-91.059,91.423-91.059h83.592c50.414,0,91.429,41.014,91.429,91.429c0.009,2.079-0.008,4.158-0.104,6.235
				C381.691,303.292,373.276,315.499,372.031,329.729z M387.789,329.729c1.784-12.598,12.633-22.32,25.715-22.32
				c13.082,0,23.931,9.723,25.715,22.32H387.789z"/>
			<path d="M395.634,165.953c0,0.004-0.001,0.007-0.001,0.011c0,0.004,0,0.007-0.001,0.011
				C395.633,165.968,395.633,165.961,395.634,165.953z"/>
		</g>
	</g>
</g>
</svg>