<?xml version="1.0" encoding="iso-8859-1"?>
<!-- Uploaded to: SVG Repo, www.svgrepo.com, Generator: SVG Repo Mixer Tools -->
<!DOCTYPE svg PUBLIC "-//W3C//DTD SVG 1.1//EN" "http://www.w3.org/Graphics/SVG/1.1/DTD/svg11.dtd">
<svg fill="#000000" height="800px" width="800px" version="1.1" id="Capa_1" xmlns="http://www.w3.org/2000/svg" xmlns:xlink="http://www.w3.org/1999/xlink" 
	 viewBox="0 0 471.98 471.98" xml:space="preserve">
<g>
	<path d="M126.444,202.569c8.822,0,16-7.178,16-16s-7.178-16-16-16s-16,7.178-16,16S117.622,202.569,126.444,202.569z
		 M126.444,180.569c3.309,0,6,2.691,6,6s-2.691,6-6,6s-6-2.691-6-6S123.136,180.569,126.444,180.569z"/>
	<path d="M367.058,296.926c8.271,0,15-6.729,15-15s-6.729-15-15-15s-15,6.729-15,15S358.786,296.926,367.058,296.926z
		 M367.058,276.926c2.757,0,5,2.243,5,5s-2.243,5-5,5s-5-2.243-5-5S364.301,276.926,367.058,276.926z"/>
	<path d="M296.006,318.032c6.243,0,11.617-3.751,14.015-9.113c1.331,0.421,2.745,0.65,4.213,0.65c7.72,0,14-6.28,14-14
		s-6.28-14-14-14c-5.18,0-9.702,2.835-12.123,7.029c-1.873-0.815-3.935-1.273-6.104-1.273c-8.466,0-15.354,6.888-15.354,15.354
		S287.54,318.032,296.006,318.032z M314.233,291.569c2.206,0,4,1.794,4,4s-1.794,4-4,4s-4-1.794-4-4
		S312.027,291.569,314.233,291.569z M296.006,297.325c2.952,0,5.354,2.401,5.354,5.354s-2.401,5.354-5.354,5.354
		s-5.354-2.401-5.354-5.354S293.054,297.325,296.006,297.325z"/>
	<path d="M201.494,303.991c7.444,0,13.5-6.056,13.5-13.5s-6.056-13.5-13.5-13.5s-13.5,6.056-13.5,13.5
		S194.05,303.991,201.494,303.991z M201.494,286.991c1.93,0,3.5,1.57,3.5,3.5s-1.57,3.5-3.5,3.5s-3.5-1.57-3.5-3.5
		S199.564,286.991,201.494,286.991z"/>
	<path d="M136.4,308.736c7.995,0,14.5-6.505,14.5-14.5s-6.505-14.5-14.5-14.5s-14.5,6.505-14.5,14.5S128.405,308.736,136.4,308.736z
		 M136.4,289.736c2.481,0,4.5,2.019,4.5,4.5s-2.019,4.5-4.5,4.5s-4.5-2.019-4.5-4.5S133.919,289.736,136.4,289.736z"/>
	<path d="M457.225,204.71c-0.089-0.397-0.184-0.793-0.29-1.189c-1.605-6.101-5.073-11.757-8.796-17.508l-3.727-5.701
		c-3.287-5.018-8.994-7.734-14.899-7.091c-2.824,0.304-5.608,0.66-8.354,1.057c-44.889-26.897-112.219-42.305-185.17-42.305
		c-37.423,0-74.559,4.219-107.604,12.193c-3.66-2.871-7.35-5.409-11.023-7.485c-2.054-4.73-4.371-9.193-6.902-13.291
		c-4.768-7.694-14.654-10.17-22.506-5.64l-10.533,6.064l-11.725-6.65c-2.785-1.58-6.169-1.688-9.049-0.285
		c-2.885,1.405-4.89,4.141-5.363,7.318c-1.609,10.801-3.128,30.012,2.079,48.554C18.913,192.67,0,217.947,0,244.232
		c0,30.708,25.056,59.255,70.551,80.38c44.273,20.558,103.028,31.88,165.439,31.88s121.165-11.322,165.439-31.88
		c45.495-21.125,70.551-49.672,70.551-80.38C471.98,230.566,467.007,217.276,457.225,204.71z M75.53,200.767
		c4.455-0.049,8.545-2.12,11.222-5.683c11.092-14.769,24.349-33.897,29.604-47.304c16.586,10.908,33.613,31.5,45.461,47.638
		c2.819,3.845,5.584,7.76,8.26,11.687l-40.828,25.559c-1.275,0.798-2.123,2.127-2.31,3.62c-0.186,1.492,0.31,2.989,1.35,4.076
		l14.67,15.33c0.971,1.014,2.285,1.543,3.614,1.543c0.894,0,1.795-0.239,2.601-0.731l16.236-9.899l-5.619,10.288
		c-14.359,9.86-38.948,14.776-67.75,13.507c-3.728-0.164-7.199-2.036-9.289-5.012c-12.761-18.145-17.956-47.482-12.351-65.517
		c1.138,0.423,2.333,0.706,3.564,0.829C74.428,200.744,75.477,200.768,75.53,200.767z M164.987,178.598l11.876,6.757l-8.853,1.627
		c-4.094-5.483-8.715-11.365-13.693-17.19c3.415-0.695,6.863-1.343,10.334-1.944l-1.829,4.534
		C161.887,174.704,162.812,177.36,164.987,178.598z M281.97,164.315c10.249,1.091,20.262,2.553,29.934,4.359l-9.719,7.842
		c-2.585-2.734-6.234-4.451-10.285-4.451c-4.239,0-8.038,1.88-10.637,4.839l-0.988,0.145L281.97,164.315z M441.586,194.349
		c1.464,2.35,2.673,4.445,3.626,6.397c-15.335,2.277-56.105,8.548-86.903,15.23l-1.153-0.413
		C387.707,206.031,429.541,196.908,441.586,194.349z M446.479,220.209c-12.278,0.569-54.699,2.749-84.861,6.942l0.174-1.697
		c31.229-6.7,72.203-12.944,86.135-15.001C448.064,213.392,447.593,216.544,446.479,220.209z M191.509,193.688l-12.949,8.106
		c-1.328-1.952-2.684-3.898-4.052-5.839l15.862-2.915L191.509,193.688z M185.975,208.95L175,229.043l-27.599,16.827l-7.643-7.987
		L185.975,208.95z M203.29,198.111l5.614-3.515l-4.98,12.449c-0.578,1.445-0.45,3.076,0.346,4.413
		c0.795,1.337,2.168,2.228,3.714,2.41l2.434,0.286l-27.123,45.992l-12.884-1.84L203.29,198.111z M287.729,186.236
		c0-2.3,1.871-4.172,4.172-4.172s4.172,1.872,4.172,4.172s-1.871,4.172-4.172,4.172S287.729,188.536,287.729,186.236z
		 M306.072,186.236c0-0.003,0-0.005,0-0.008l13.828-11.157l1.534,2.558l-6.785,11.823c-3.465,2.338-5.748,6.299-5.748,10.784
		c0,0.56,0.048,1.108,0.117,1.649l-8.292,4.145l-2.123-7.312C303.045,196.323,306.072,191.627,306.072,186.236z M305.436,222.258
		l-1.877-6.464l10.472-5.234c1.935,1.479,4.29,2.426,6.857,2.625l0.056,0.02C315.839,221.881,309.058,222.61,305.436,222.258z
		 M284.236,234.389l-3.893-9.482c5.806-1.229,10.383-5.823,11.582-11.641l5.706,17.974L284.236,234.389z M282.233,210.236
		c0,2.757-2.243,5-5,5s-5-2.243-5-5s2.243-5,5-5S282.233,207.479,282.233,210.236z M321.9,203.236c-1.654,0-3-1.346-3-3s1.346-3,3-3
		s3,1.346,3,3S323.555,203.236,321.9,203.236z M277.793,187.519c0.29,3.216,1.663,6.117,3.746,8.354
		c-1.365-0.41-2.809-0.637-4.306-0.637c-1.321,0-2.597,0.189-3.818,0.511c0.522-1.522,0.818-3.148,0.818-4.845
		c0-0.965-0.1-1.906-0.275-2.821L277.793,187.519z M232.233,205.902c0,0.253,0.024,0.5,0.038,0.75l-16.638-1.955l6.446-16.116
		l16.518,5.975C234.787,196.907,232.233,201.106,232.233,205.902z M245.566,202.569c1.838,0,3.334,1.495,3.334,3.333
		s-1.496,3.333-3.334,3.333s-3.333-1.496-3.333-3.333S243.729,202.569,245.566,202.569z M254.233,190.902c0-2.757,2.243-5,5-5
		s5,2.243,5,5s-2.243,5-5,5S254.233,193.659,254.233,190.902z M227.986,180.085l-6.656-30.383l11.794-1.072l6.464,35.652
		L227.986,180.085z M221.304,215.433l6.716,0.789l-11.053,28.154l-12.247-0.85L221.304,215.433z M238.29,217.428
		c0,0,3.079,1.718,6.191,1.752l-11.693,45.046l-12.451-1.067L238.29,217.428z M256.169,213.955c1.706-2.24,2.731-5.026,2.731-8.052
		c0-0.006-0.001-0.011-0.001-0.017c0.112,0.002,2.931-0.172,4.152-0.494c-0.521,1.522-0.818,3.148-0.818,4.845
		c0,3.308,1.089,6.359,2.91,8.842l-9.508,37.061l-9.76-2.53L256.169,213.955z M272.265,231.558l4.34,10.573
		c0.783,1.909,2.634,3.102,4.623,3.102c0.379,0,3.863-0.772,3.863-0.772l2.693,26.909l-15.493,2.447l-3.281-29.573L272.265,231.558z
		 M305.045,239.77c1.334-0.313,2.481-1.162,3.173-2.345s0.866-2.6,0.484-3.916l-0.387-1.334c0.969-0.054,1.991-0.164,3.05-0.35
		l-0.122,0.092l20.667,27.37l-16.298,6.269l-18.205-23.989L305.045,239.77z M320.818,228c3.477-2.362,6.861-5.962,9.678-11.371
		l21.364,7.659l-1.625,15.841l-27.353-9.393L320.818,228z M326.879,188.231l4.688-8.17c0.901-1.571,0.883-3.507-0.05-5.061
		l-1.461-2.435c15.434,3.755,29.703,8.425,42.285,13.879c-18.021,6.382-31.328,13.239-37.824,16.865
		c0.241-0.987,0.382-2.013,0.382-3.073C334.9,194.831,331.583,190.189,326.879,188.231z M270.128,178.535l-2.026,0.297
		c-2.118-1.561-4.65-2.588-7.408-2.856l2.067-18.807l9.459,4.601L270.128,178.535z M250.317,178.868
		c-0.484,0.36-0.947,0.744-1.384,1.158l-3.238-17.999c2.161,0.047,4.314,0.108,6.452,0.186L250.317,178.868z M214.932,167.222
		l-9.193-4.265c2.711-0.186,5.428-0.347,8.153-0.483L214.932,167.222z M215.646,178.577l-14.509,9.083l-27.405-15.592l4.396-10.896
		L215.646,178.577z M74.568,271.135c3.858,5.496,10.226,8.955,17.031,9.252c2.351,0.104,5.249,0.186,8.558,0.185
		c16.446,0,42.957-2.023,62.008-13.344c0,0,23.501,3.34,23.736,3.34c1.752,0,3.398-0.922,4.306-2.46l8.828-14.954l14.101,0.979
		l-4.557,11.608c-0.576,1.469-0.426,3.124,0.406,4.464s2.249,2.21,3.821,2.345c0,0,23.62,2.018,23.763,2.018
		c2.258,0,4.261-1.524,4.837-3.744l1.957-7.538l14.617,3.788c0.413,0.107,0.834,0.16,1.254,0.16c0.763,0,1.517-0.186,2.208-0.527
		l1.489,13.415c0.151,1.357,0.851,2.594,1.937,3.423c0.877,0.669,1.944,1.025,3.033,1.025c0.26,0,26.11-4.061,26.11-4.061
		c2.618-0.414,4.459-2.799,4.195-5.437l-1.834-18.331l13.545,17.849c0.967,1.273,2.454,1.978,3.984,1.978
		c0.601,0,1.209-0.108,1.794-0.334l26-10c1.466-0.563,2.581-1.783,3.013-3.292c0.432-1.509,0.129-3.134-0.817-4.387l-10.229-13.546
		l19.28,6.621c0.529,0.182,1.077,0.271,1.624,0.271c0.943,0,1.88-0.267,2.693-0.788c1.241-0.793,2.061-2.094,2.256-3.548
		c17.373-0.332,46.243-0.887,67.785-1.334c-1.989,19.458-21.548,38.605-54.376,52.979c-36.493,15.98-85.124,24.78-136.935,24.78
		s-100.441-8.8-136.935-24.78C64.385,284.031,44.5,263.525,44.5,242.953c0-10.115,4.741-20.241,13.807-29.747
		C57.549,232.493,63.441,255.313,74.568,271.135z M436.173,236.043c-21.321,0.459-55.545,1.118-75.621,1.502
		c0,0,65.44-6.308,81.872-7.13c-0.364,0.774-0.743,1.564-1.147,2.38C440.312,234.751,438.354,235.995,436.173,236.043z
		 M430.593,183.163c1.933-0.213,3.9,0.651,5.135,2.207c-17.382,3.739-61.933,13.717-91.018,23.744
		C358.296,202.012,390.105,187.529,430.593,183.163z M386.298,181.925c-28.066-14.073-66.024-23.974-107.261-27.959l-18.284-8.893
		c-1.462-0.71-3.178-0.667-4.603,0.119c-1.424,0.786-2.376,2.215-2.554,3.831l-0.354,3.222c-3.094-0.118-6.219-0.203-9.354-0.257
		c0,0-1.799-9.861-1.828-9.975c63.38,0.756,121.805,13.335,163.558,35.034C398.835,178.481,392.375,180.139,386.298,181.925z
		 M210.977,142.623c-0.674,1.097-0.905,2.415-0.627,3.682l1.372,6.264c-8.145,0.438-16.236,1.092-24.152,1.959l-10.005-4.641
		c-1.242-0.577-2.669-0.618-3.942-0.114c-1.274,0.504-2.286,1.508-2.799,2.779l-1.793,4.445c-7.568,1.181-15.067,2.59-22.384,4.204
		c-2.893-3.092-5.865-6.095-8.889-8.937C160.741,147.185,185.57,143.922,210.977,142.623z M108.198,140.723
		c-2.391,9.015-12.987,26.447-29.442,48.355c-0.795,1.059-2.011,1.675-3.335,1.689c-1.342-0.01-2.529-0.568-3.348-1.59
		c-1.456-1.967-2.784-4.102-3.992-6.352c8.8-6.347,29.454-24.318,33.164-55.118C103.326,130.022,106.33,136.415,108.198,140.723z
		 M79.936,133.905l11.264-6.484c-1.915,13.94-7.923,24.899-14.231,32.917c-1.463-6.267-1.694-17.097-1.415-26.137
		C76.971,134.78,78.588,134.681,79.936,133.905z M61.118,126.063l4.647,2.636c-0.518,8.466-1.337,30.365,3.757,39.832
		c-2.024,1.932-3.903,3.523-5.494,4.775C61.091,164.292,57.876,148.271,61.118,126.063z M397.218,315.543
		c-42.982,19.958-100.24,30.95-161.228,30.95s-118.246-10.992-161.229-30.95C33,296.151,10,270.826,10,244.232
		c0-22.171,16.555-44,46.752-61.873c0.112,0.259,3.622,7.412,5.61,10.391c-0.638,1.532-1.19,3.153-1.677,4.835
		C43.562,211.204,34.5,226.859,34.5,242.953c0,25.091,21.502,48.324,60.544,65.42c37.73,16.521,87.786,25.62,140.946,25.62
		s103.216-9.099,140.945-25.62c37.464-16.405,58.764-38.462,60.427-62.387c5.525-0.458,10.401-3.746,12.879-8.757
		c1.891-3.82,3.387-7.234,4.579-10.445c0.623-1.688,1.152-3.311,1.589-4.88c3.695,7.316,5.571,14.787,5.571,22.328
		C461.98,270.826,438.98,296.15,397.218,315.543z"/>
</g>
</svg>